<svg width="230" height="55" viewBox="0 0 230 55" fill="none" xmlns="http://www.w3.org/2000/svg">
<path d="M75.6834 15.6091C75.5802 17.0666 75.0505 18.2145 74.0941 19.0528C73.1384 19.8893 71.8786 20.3075 70.3147 20.3075C68.6044 20.3075 67.2598 19.7229 66.2809 18.5537C65.3 17.3858 64.8096 15.781 64.8096 13.7392V12.9102C64.8096 11.6082 65.0356 10.4606 65.4877 9.46747C65.9397 8.47563 66.5853 7.71465 67.4243 7.18455C68.2646 6.65316 69.2406 6.38778 70.3524 6.38843C71.8905 6.38843 73.1303 6.80729 74.0718 7.645C75.0115 8.48143 75.5551 9.65675 75.7028 11.171H72.9546C72.8869 10.2965 72.647 9.66223 72.2349 9.2682C71.8221 8.87481 71.1947 8.67812 70.3524 8.67812C69.436 8.67812 68.7505 9.01121 68.2959 9.67738C67.8406 10.3448 67.6068 11.3793 67.5945 12.7806V13.8041C67.5945 15.268 67.8128 16.3378 68.2494 17.0137C68.6867 17.6908 69.3754 18.0291 70.3157 18.0284C71.1643 18.0284 71.798 17.8317 72.2165 17.4383C72.635 17.0437 72.8746 16.4342 72.9352 15.6101L75.6834 15.6091ZM89.8743 13.6551C89.8743 14.99 89.6421 16.1592 89.1778 17.1627C88.7141 18.168 88.0499 18.9435 87.1851 19.4891C86.3216 20.0347 85.331 20.3075 84.2134 20.3075C83.1081 20.3075 82.1214 20.0379 81.2534 19.4988C80.3873 18.9584 79.7156 18.1877 79.2384 17.1868C78.7618 16.1853 78.5206 15.0326 78.5148 13.7286V13.0592C78.5148 11.7256 78.7515 10.5519 79.2249 9.53809C79.6982 8.52431 80.3673 7.74561 81.2321 7.20196C82.0962 6.66025 83.0839 6.38907 84.1951 6.38843C85.3068 6.38843 86.2948 6.65961 87.159 7.20196C88.0231 7.74561 88.6916 8.52431 89.1643 9.53809C89.6383 10.5519 89.8753 11.7223 89.8753 13.0495L89.8743 13.6551ZM87.0903 13.0408C87.0903 11.6201 86.8401 10.5409 86.3396 9.80314C85.8386 9.06473 85.1237 8.69553 84.1951 8.69553C83.2729 8.69553 82.5612 9.0599 82.0601 9.78863C81.5591 10.5174 81.3059 11.5863 81.3008 12.9954V13.6561C81.3008 15.0393 81.551 16.1121 82.0514 16.8744C82.5519 17.6379 83.2725 18.0197 84.2134 18.0197C85.135 18.0197 85.8437 17.6521 86.3396 16.917C86.8336 16.1818 87.0838 15.11 87.0903 13.7015V13.0408ZM96.222 20.1217H93.4747V6.57416H96.222V20.1217ZM111.046 20.1217H108.297L102.948 11.2087V20.1217H100.2V6.57416H102.948L108.307 15.5066V6.57416H111.046V20.1217ZM124.652 8.8358H120.566V20.1217H117.818V8.8358H113.787V6.57416H124.652V8.8358ZM135.673 14.251H130.397V17.8795H136.589V20.1217H127.648V6.57416H136.572V8.8358H130.397V12.0638H135.673V14.251ZM142.38 17.8795H148.216V20.1217H139.631V6.57416H142.38V17.8795ZM159.246 14.25H153.969V17.8795H160.161V20.1217H151.221V6.57416H160.144V8.8358H153.969V12.0638H159.246V14.25ZM173.758 18.4096C173.263 19.0112 172.563 19.4778 171.659 19.8093C170.756 20.1421 169.755 20.3084 168.654 20.3084C167.5 20.3084 166.488 20.0524 165.618 19.5404C164.747 19.0283 164.075 18.2854 163.602 17.3116C163.129 16.3378 162.886 15.1935 162.874 13.8785V12.9567C162.874 11.6043 163.098 10.4338 163.548 9.44522C163.996 8.45596 164.643 7.69917 165.489 7.17488C166.335 6.65058 167.326 6.38843 168.463 6.38843C170.044 6.38843 171.281 6.7715 172.173 7.53763C173.065 8.30376 173.593 9.41878 173.758 10.8827H171.082C170.96 10.1069 170.69 9.53938 170.272 9.18017C169.853 8.82032 169.278 8.6404 168.545 8.6404C167.61 8.6404 166.898 8.99702 166.409 9.71027C165.922 10.4235 165.675 11.4844 165.668 12.8928V13.7576C165.668 15.1783 165.934 16.2514 166.464 16.9769C166.996 17.7024 167.775 18.0652 168.801 18.0652C169.833 18.0652 170.569 17.8421 171.009 17.3958V15.0606H168.508V13.0041H173.758V18.4096ZM182.351 15.1632H180.162V20.1217H177.413V6.57416H182.369C183.945 6.57416 185.161 6.93111 186.015 7.645C186.87 8.35761 187.298 9.36526 187.298 10.6679C187.298 11.5927 187.101 12.3634 186.707 12.9799C186.313 13.5977 185.716 14.0894 184.916 14.4551L187.802 19.9912V20.1217H184.852L182.351 15.1632ZM180.162 12.9015H182.378C183.068 12.9015 183.603 12.7232 183.982 12.3666C184.36 12.0093 184.55 11.5176 184.55 10.8914C184.55 10.253 184.371 9.75058 184.014 9.38428C183.656 9.01863 183.108 8.8358 182.369 8.8358H180.161L180.162 12.9015ZM198.347 17.33H193.528L192.613 20.1217H189.689L194.656 6.57416H197.202L202.194 20.1217H199.273L198.347 17.33ZM194.271 15.0703H197.605L195.929 9.99757L194.271 15.0703ZM207.618 15.3489V20.1217H204.87V6.57416H210.073C211.075 6.57416 211.956 6.76053 212.716 7.13328C213.477 7.50474 214.062 8.03355 214.471 8.71972C214.88 9.40459 215.085 10.1846 215.085 11.0597C215.085 12.3869 214.638 13.4332 213.743 14.1987C212.847 14.9662 211.609 15.3495 210.028 15.3489H207.618ZM207.618 13.0873H210.073C210.8 13.0873 211.355 12.9138 211.736 12.5668C212.118 12.2186 212.309 11.7223 212.309 11.0781C212.309 10.4139 212.116 9.87698 211.732 9.46747C211.347 9.05925 210.816 8.8487 210.138 8.8358H207.618V13.0873ZM229.257 20.1217H226.509V14.3158H221.15V20.1217H218.401V6.57416H221.15V12.0638H226.509V6.57416H229.257V20.1217Z" fill="#383E47"/>
<path d="M72.2032 32.0787H69.2973V40.0912H67.6915V32.0787H64.8117V30.7738H72.2032V32.0787ZM75.3316 33.9225C75.5655 33.6397 75.8604 33.4134 76.194 33.2605C76.5277 33.1075 76.8915 33.0319 77.2585 33.0393C78.7353 33.0393 79.4834 33.8818 79.5027 35.5669V40.0912H77.9492V35.625C77.9492 35.1471 77.846 34.8089 77.6396 34.6102C77.4313 34.4123 77.1269 34.3133 76.7265 34.3133C76.1035 34.3133 75.6385 34.5903 75.3316 35.1442V40.0912H73.7761V30.2621H75.3316V33.9225ZM84.649 40.2189C83.6636 40.2189 82.8646 39.9087 82.2519 39.2883C81.6399 38.6673 81.3339 37.8408 81.3339 36.809V36.6165C81.3339 35.9252 81.4674 35.3077 81.7344 34.7641C81.9808 34.2431 82.3699 33.8027 82.8565 33.4939C83.3395 33.1906 83.8997 33.0327 84.47 33.0393C85.4122 33.0393 86.1406 33.3398 86.6552 33.9408C87.1686 34.5432 87.4256 35.3944 87.4262 36.4946V37.1224H82.901C82.9487 37.6938 83.1399 38.1459 83.4746 38.4786C83.8093 38.8114 84.2304 38.9778 84.738 38.9778C85.4506 38.9778 86.031 38.6895 86.4792 38.113L87.3179 38.9139C87.0397 39.3282 86.656 39.6608 86.2064 39.8774C85.7206 40.1101 85.1875 40.227 84.649 40.2189ZM84.4632 34.2862C84.0363 34.2862 83.692 34.4358 83.4301 34.735C83.1677 35.033 83 35.4489 82.9271 35.9829H85.8891V35.8668C85.8562 35.347 85.7179 34.9537 85.4741 34.6867C85.2304 34.4197 84.8934 34.2862 84.4632 34.2862ZM93.4914 40.0912V34.3191H92.4351V33.167H93.4914V32.5334C93.4914 31.7653 93.7049 31.1723 94.1318 30.7544C94.5581 30.3365 95.1553 30.1276 95.9233 30.1276C96.1968 30.1276 96.487 30.166 96.7939 30.2427L96.7552 31.4587C96.5592 31.4212 96.3599 31.404 96.1603 31.4074C95.418 31.4074 95.0472 31.7892 95.0479 32.5527V33.167H96.4534V34.3191H95.0469V40.0912H93.4914ZM102.31 39.4141C101.853 39.9506 101.204 40.2189 100.363 40.2189C99.6121 40.2189 99.044 39.9993 98.659 39.5601C98.2727 39.1216 98.0795 38.4857 98.0795 37.6525V33.167H99.635V37.6332C99.635 38.5128 99.9997 38.9526 100.729 38.9526C101.484 38.9526 101.994 38.6818 102.257 38.1401V33.167H103.813V40.0912H102.347L102.31 39.4141ZM107.87 31.4838V33.167H109.093V34.3191H107.87V38.1836C107.87 38.4487 107.922 38.6399 108.027 38.7572C108.132 38.8733 108.318 38.9317 108.587 38.9323C108.767 38.9323 108.948 38.911 109.13 38.8685V40.0718C108.798 40.1676 108.453 40.2169 108.107 40.2189C106.913 40.2189 106.315 39.5598 106.315 38.2416V34.3191H105.176V33.167H106.314V31.4848L107.87 31.4838ZM114.998 39.4141C114.542 39.9519 113.893 40.2205 113.053 40.2198C112.302 40.2198 111.733 40.0003 111.348 39.5611C110.961 39.1226 110.767 38.4867 110.768 37.6535V33.1679H112.324V37.6342C112.324 38.5138 112.688 38.9536 113.418 38.9536C114.172 38.9536 114.682 38.6828 114.947 38.141V33.1679H116.503V40.0922H115.037L114.998 39.4141ZM122.236 34.589C122.026 34.5545 121.815 34.5374 121.602 34.5377C120.89 34.5377 120.41 34.8108 120.162 35.357V40.0922H118.607V33.1679H120.092L120.13 33.9418C120.506 33.3408 121.026 33.0403 121.691 33.0403C121.913 33.0403 122.097 33.0699 122.242 33.1293L122.236 34.589ZM126.67 40.2198C125.684 40.2198 124.885 39.9097 124.273 39.2893C123.662 38.6682 123.356 37.8418 123.355 36.81V36.6175C123.355 35.9262 123.488 35.3087 123.755 34.765C124.001 34.2439 124.391 33.8035 124.878 33.4949C125.36 33.1917 125.92 33.0339 126.49 33.0403C127.434 33.0403 128.162 33.3408 128.676 33.9418C129.189 34.5441 129.447 35.3954 129.447 36.4956V37.1234H124.922C124.97 37.6948 125.161 38.1468 125.496 38.4796C125.831 38.8124 126.252 38.9788 126.759 38.9788C127.472 38.9788 128.052 38.6905 128.5 38.114L129.339 38.9149C129.061 39.3292 128.677 39.6618 128.228 39.8784C127.742 40.1111 127.209 40.228 126.67 40.2198ZM126.484 34.2872C126.058 34.2872 125.713 34.4368 125.451 34.736C125.189 35.0339 125.021 35.4499 124.948 35.9839H127.91V35.8678C127.877 35.348 127.738 34.9546 127.495 34.6876C127.252 34.4213 126.915 34.2878 126.484 34.2872ZM134.674 36.5652C134.674 35.8868 134.808 35.2758 135.077 34.7321C135.324 34.2121 135.718 33.7758 136.21 33.4775C136.696 33.1854 137.255 33.0393 137.887 33.0393C138.821 33.0393 139.579 33.3398 140.162 33.9408C140.745 34.5432 141.059 35.3412 141.106 36.335L141.113 36.6997C141.113 37.382 140.981 37.9921 140.719 38.5299C140.475 39.048 140.082 39.4821 139.592 39.7778C139.104 40.0718 138.54 40.2189 137.9 40.2189C136.923 40.2189 136.141 39.8939 135.554 39.2438C134.967 38.5925 134.674 37.7251 134.674 36.6417V36.5652ZM136.229 36.6997C136.229 37.4123 136.377 37.9701 136.672 38.3732C136.965 38.7763 137.374 38.9778 137.9 38.9778C138.424 38.9778 138.833 38.7727 139.125 38.3626C139.417 37.9543 139.564 37.3552 139.563 36.5652C139.563 35.8662 139.413 35.3116 139.112 34.9014C138.812 34.4913 138.403 34.2865 137.887 34.2872C137.38 34.2872 136.977 34.4887 136.677 34.8917C136.378 35.2948 136.229 35.8975 136.229 36.6997ZM143.5 40.0912V34.3191H142.444V33.167H143.5V32.5334C143.5 31.7653 143.713 31.1723 144.139 30.7544C144.566 30.3365 145.163 30.1276 145.931 30.1276C146.204 30.1276 146.495 30.166 146.801 30.2427L146.763 31.4587C146.567 31.4212 146.368 31.404 146.169 31.4074C145.426 31.4074 145.054 31.7892 145.054 32.5527V33.167H146.462V34.3191H145.054V40.0912H143.5ZM153.373 33.167L153.417 33.8905C153.903 33.323 154.569 33.0393 155.414 33.0393C156.339 33.0393 156.973 33.3937 157.315 34.1024C157.818 33.393 158.526 33.0386 159.439 33.0393C160.202 33.0393 160.771 33.2505 161.144 33.6729C161.518 34.0947 161.71 34.7173 161.718 35.5408V40.0912H160.162V35.5863C160.162 35.1465 160.066 34.8244 159.874 34.6199C159.682 34.4148 159.364 34.3123 158.921 34.3123C158.567 34.3123 158.278 34.4074 158.054 34.5977C157.826 34.7931 157.662 35.0523 157.583 35.3425L157.59 40.0922H156.035V35.535C156.013 34.7199 155.598 34.3123 154.787 34.3123C154.163 34.3123 153.722 34.5664 153.463 35.0746V40.0912H151.907V33.167H153.373ZM163.547 36.5662C163.547 35.8871 163.681 35.2758 163.95 34.7321C164.197 34.2123 164.591 33.7761 165.083 33.4775C165.569 33.1854 166.128 33.0393 166.76 33.0393C167.695 33.0393 168.453 33.3398 169.034 33.9408C169.617 34.5432 169.932 35.3412 169.978 36.335L169.985 36.6997C169.985 37.382 169.854 37.9921 169.592 38.5299C169.347 39.0481 168.955 39.4823 168.464 39.7778C167.976 40.0718 167.412 40.2189 166.772 40.2189C165.795 40.2189 165.014 39.8939 164.427 39.2438C163.841 38.5925 163.547 37.7251 163.547 36.6417V36.5662ZM165.103 36.6997C165.103 37.4123 165.25 37.9701 165.544 38.3732C165.838 38.7763 166.248 38.9778 166.772 38.9778C167.297 38.9778 167.705 38.7727 167.998 38.3626C168.29 37.9543 168.436 37.3552 168.436 36.5652C168.436 35.8662 168.286 35.3116 167.985 34.9014C167.684 34.4913 167.276 34.2865 166.76 34.2872C166.251 34.2872 165.848 34.4887 165.55 34.8917C165.251 35.2948 165.102 35.8975 165.103 36.6997ZM173.267 33.167L173.311 33.967C173.824 33.3479 174.496 33.0386 175.327 33.0393C176.769 33.0393 177.503 33.8648 177.529 35.5157V40.0912H175.975V35.6056C175.975 35.1665 175.879 34.8411 175.689 34.6296C175.5 34.4181 175.19 34.3123 174.758 34.3123C174.131 34.3123 173.664 34.5961 173.357 35.1636V40.0912H171.801V33.167H173.267ZM182.686 40.2189C181.701 40.2189 180.902 39.9087 180.291 39.2883C179.678 38.6673 179.372 37.8408 179.372 36.809V36.6165C179.372 35.9252 179.505 35.3077 179.771 34.7641C180.018 34.2428 180.408 33.8024 180.895 33.4939C181.378 33.1909 181.937 33.0331 182.507 33.0393C183.45 33.0393 184.179 33.3398 184.693 33.9408C185.207 34.5432 185.464 35.3944 185.464 36.4946V37.1224H180.94C180.986 37.6938 181.177 38.1459 181.512 38.4786C181.847 38.8114 182.268 38.9778 182.776 38.9778C183.489 38.9778 184.069 38.6895 184.516 38.113L185.356 38.9139C185.078 39.3281 184.695 39.6607 184.245 39.8774C183.759 40.1104 183.225 40.2273 182.686 40.2189ZM182.501 34.2862C182.075 34.2862 181.73 34.4358 181.467 34.735C181.205 35.033 181.038 35.4489 180.965 35.9829H183.928V35.8668C183.894 35.347 183.755 34.9537 183.512 34.6867C183.269 34.4197 182.932 34.2862 182.501 34.2862ZM189.534 37.8644L190.941 33.167H192.598L189.846 41.1408C189.424 42.3054 188.708 42.8878 187.697 42.8878C187.443 42.8834 187.191 42.8447 186.948 42.7727V41.5693L187.243 41.5886C187.635 41.5886 187.93 41.5174 188.128 41.3749C188.327 41.231 188.484 40.9911 188.598 40.6552L188.823 40.0593L186.392 33.167H188.068L189.534 37.8644ZM33.9343 40.1908L24.1777 44.3842V43.9644C22.2962 44.4403 20.2126 44.7151 18.2382 44.8031C9.06397 44.7151 1.78184 39.9683 1.69671 34.32V32.2219C4.70998 36.5536 10.8448 39.4557 18.2382 39.3512C20.7407 39.4557 23.2993 39.0648 25.4497 38.5125L26.2981 36.4153C23.7482 37.1679 20.9642 37.6912 18.2392 37.6728C9.06397 37.6912 1.78184 32.9445 1.69768 27.1908V25.5134C4.70998 29.5182 10.8313 32.4202 18.2392 32.2229C21.5717 32.4212 24.8306 31.7276 27.5701 30.5445L27.9958 28.4483C25.3182 29.8442 21.8483 30.6548 18.2392 30.5445C9.06397 30.6548 1.78184 25.9081 1.69768 20.0624V18.3841C4.70998 22.4817 10.8448 25.3847 18.2392 25.5134C22.4413 25.3847 26.4258 24.2868 29.6925 22.5775L30.1162 20.0615C27.1523 22.2331 22.8244 23.6329 18.2392 23.8351C9.06397 23.6329 1.78281 18.8852 1.69768 12.9331C1.78184 7.27227 9.06397 2.52457 18.2392 2.45008C23.7085 2.52553 28.788 4.42152 31.8129 7.48218L32.1079 7.96682L34.2458 7.97649L33.9343 7.48218C30.9258 3.4416 24.909 0.773682 18.2392 0.773682C8.08696 0.773682 0 6.30493 0 12.9341V34.7389C0.356948 41.2104 8.25914 46.4795 18.2392 46.4795C24.8306 46.4795 30.7546 43.9161 33.9343 40.1908Z" fill="#99A2AF"/>
<path d="M29.9663 54.9448L33.3907 40.5556L23.5461 44.7877L29.5397 19.8188H17.98L20.9758 7.54517H57.7918L54.795 19.8188H42.8097L40.2404 26.5901L53.5104 21.0879L29.9663 54.9448ZM35.9599 37.5927L34.2477 46.0569L48.3738 24.8973L36.815 29.9758L41.9526 18.1259H53.5104L55.6511 9.23801H22.2595L20.1188 18.1259H31.6785L26.1124 41.8257L35.959 37.5946L35.9599 37.5927Z" fill="#383E47"/>
<path d="M93.466 40.1004H95.008V34.3022H96.4358V33.1743H95.008V32.5087C95.008 32.2656 95.0505 32.0608 95.1357 31.8945C95.2206 31.7313 95.355 31.5992 95.5197 31.5172C95.6906 31.4269 95.8934 31.3818 96.1282 31.3818C96.2442 31.3818 96.3506 31.3863 96.4474 31.3953C96.5506 31.4037 96.6447 31.4185 96.7298 31.4398L96.7685 30.25C96.6258 30.2112 96.4802 30.1834 96.3332 30.1668C96.1827 30.1443 96.0307 30.1336 95.8786 30.1349C95.3833 30.1349 94.9544 30.2264 94.592 30.4096C94.2358 30.5822 93.9425 30.8619 93.7533 31.2096C93.5618 31.5598 93.466 31.9928 93.466 32.5087V33.1743H92.4029V34.3012H93.466V40.1004ZM75.3362 33.9704V30.2703H73.801V40.1004H75.3362V35.1573C75.3819 35.0696 75.4335 34.987 75.4909 34.9097C75.6315 34.7181 75.8063 34.5666 76.0152 34.455C76.228 34.3447 76.4731 34.2896 76.7504 34.2896C77.0155 34.2896 77.2396 34.3344 77.4227 34.4241C77.6065 34.5092 77.7452 34.6498 77.8387 34.8458C77.9373 35.0425 77.9867 35.3069 77.9867 35.639V40.1004H79.5344V35.6526C79.5344 35.1786 79.4812 34.7775 79.3748 34.4492C79.2908 34.1474 79.1348 33.8706 78.9201 33.6424C78.7227 33.4342 78.4768 33.278 78.2043 33.1878C77.907 33.0899 77.5954 33.0425 77.2824 33.0475C76.909 33.042 76.5393 33.1223 76.2018 33.2823C75.8644 33.4423 75.5682 33.6777 75.3362 33.9704ZM69.3019 40.1004V32.0618H72.2271V30.782H64.8096V32.0618H67.7087V40.1004H69.3019Z" fill="#99A2AF"/>
<path fill-rule="evenodd" clip-rule="evenodd" d="M84.6612 40.2315C84.1864 40.2388 83.7147 40.154 83.2721 39.9819C82.8771 39.8201 82.5197 39.5784 82.2226 39.2719C81.934 38.9628 81.7098 38.5995 81.5628 38.203C81.4073 37.7786 81.3294 37.3297 81.3326 36.8777V36.6223C81.3326 36.0806 81.4116 35.5899 81.5696 35.1501C81.727 34.7109 81.9466 34.3356 82.2284 34.0241C82.5034 33.7118 82.8444 33.4647 83.2267 33.3005C83.6209 33.1318 84.0458 33.0468 84.4745 33.0509C84.9698 33.0509 85.4032 33.1341 85.7746 33.3005C86.1448 33.4669 86.4518 33.7016 86.6955 34.0047C86.9432 34.3033 87.127 34.6596 87.2469 35.0736C87.3695 35.4877 87.431 35.9442 87.4317 36.4434V37.1021H82.8891C82.9045 37.3208 82.9426 37.5278 83.0032 37.7232C83.0883 37.9792 83.2118 38.2033 83.3737 38.3955C83.5362 38.587 83.7329 38.7386 83.9638 38.8501C84.1934 38.9565 84.4555 39.0097 84.7502 39.0097C85.1217 39.0097 85.4525 38.9349 85.7427 38.7853C86.0329 38.6357 86.2844 38.4245 86.4972 38.1517L87.3098 38.9391C87.1447 39.1733 86.9488 39.3841 86.7275 39.566C86.4889 39.7626 86.1967 39.9226 85.8511 40.0458C85.4682 40.1763 85.0656 40.2391 84.6612 40.2315ZM82.9839 35.656C82.9579 35.7678 82.9369 35.8808 82.921 35.9945H85.9081V35.8736C85.9027 35.6053 85.8466 35.3404 85.7427 35.093C85.6507 34.8569 85.4929 34.6521 85.2881 34.5029C85.083 34.3546 84.8099 34.2804 84.4687 34.2804C84.2127 34.2804 83.9844 34.3356 83.7839 34.4458C83.5824 34.5571 83.4126 34.7179 83.2905 34.9131C83.1491 35.1427 83.0456 35.3935 82.9839 35.656Z" fill="#99A2AF"/>
<path d="M101.524 39.997C101.818 39.8558 102.078 39.6518 102.284 39.3991L102.324 40.1053H103.783V33.1801H102.234V38.1503C102.126 38.3852 101.955 38.5857 101.741 38.7297C101.489 38.9 101.144 38.9851 100.705 38.9851C100.557 38.9861 100.41 38.9646 100.269 38.9213C100.134 38.8791 100.01 38.8044 99.9103 38.7036C99.8003 38.589 99.7173 38.4511 99.6675 38.3002C99.6026 38.0955 99.5722 37.8814 99.5776 37.6666V33.1801H98.0356V37.6541C98.0356 38.1106 98.0911 38.5034 98.202 38.8323C98.3129 39.1612 98.4687 39.4275 98.6693 39.6313C98.8737 39.8364 99.1168 39.9879 99.3986 40.0859C99.6804 40.184 99.9897 40.233 100.326 40.233C100.791 40.233 101.19 40.1543 101.524 39.997ZM109.049 34.3071V33.1791H107.814V31.4834H106.272V33.1791H105.145V34.3061H106.272V38.2867C106.272 38.7607 106.348 39.1405 106.502 39.4262C106.655 39.7126 106.869 39.9192 107.142 40.0463C107.415 40.1701 107.728 40.232 108.082 40.232C108.3 40.232 108.493 40.2172 108.659 40.1875C108.829 40.1579 108.979 40.1237 109.107 40.085L109.1 38.9077C108.921 38.9441 108.739 38.9636 108.556 38.9658C108.407 38.9658 108.277 38.9464 108.166 38.9077C108.054 38.8677 107.96 38.7878 107.903 38.6833C107.843 38.5685 107.814 38.4041 107.814 38.19V34.3061L109.049 34.3071ZM114.207 39.997C114.51 39.8486 114.764 39.6494 114.968 39.3991L115.007 40.1053H116.466V33.1801H114.918V38.1503C114.809 38.3849 114.639 38.5854 114.424 38.7297C114.173 38.9 113.827 38.9851 113.387 38.9851C113.234 38.9851 113.089 38.9638 112.952 38.9213C112.817 38.8789 112.694 38.8042 112.594 38.7036C112.484 38.5891 112.4 38.4512 112.35 38.3002C112.286 38.0954 112.256 37.8813 112.261 37.6666V33.1801H110.718V37.6541C110.718 38.1106 110.774 38.5034 110.885 38.8323C110.996 39.1612 111.151 39.4275 111.352 39.6313C111.557 39.8364 111.801 39.9879 112.082 40.0859C112.364 40.184 112.673 40.233 113.01 40.233C113.475 40.233 113.874 40.1543 114.207 39.997ZM120.106 35.3721V40.1053H118.565V33.1801H120.037L120.08 33.9936L120.106 33.9482C120.282 33.667 120.5 33.4474 120.759 33.2894C121.024 33.1314 121.329 33.0524 121.675 33.0524C121.769 33.0524 121.869 33.0608 121.975 33.0776C122.086 33.095 122.169 33.1143 122.225 33.1356L122.212 34.5692C122.005 34.5357 121.795 34.5185 121.586 34.5179C121.321 34.5179 121.089 34.5566 120.888 34.634C120.713 34.6951 120.553 34.7924 120.418 34.9196C120.284 35.0468 120.177 35.201 120.106 35.3721Z" fill="#99A2AF"/>
<path fill-rule="evenodd" clip-rule="evenodd" d="M126.629 40.2318C126.116 40.2318 125.653 40.1486 125.239 39.9822C124.844 39.8204 124.487 39.5787 124.19 39.2722C123.901 38.9631 123.677 38.5997 123.53 38.2033C123.375 37.7789 123.297 37.33 123.3 36.878V36.6226C123.3 36.0809 123.379 35.5902 123.537 35.1503C123.694 34.7112 123.914 34.3358 124.196 34.0244C124.471 33.712 124.812 33.4648 125.195 33.3008C125.589 33.1321 126.014 33.0471 126.443 33.0512C126.937 33.0512 127.37 33.1344 127.742 33.3008C128.113 33.4672 128.421 33.7019 128.664 34.005C128.911 34.3036 129.094 34.6599 129.213 35.0739C129.337 35.4879 129.399 35.9445 129.399 36.4437V37.1024H124.856C124.872 37.3211 124.91 37.5281 124.97 37.7235C125.056 37.9795 125.179 38.2036 125.342 38.3958C125.503 38.5873 125.699 38.7389 125.93 38.8504C126.161 38.9568 126.423 39.01 126.718 39.01C127.062 39.0166 127.402 38.9396 127.71 38.7856C128 38.636 128.252 38.4248 128.465 38.152L129.278 38.9394C129.113 39.1735 128.917 39.3844 128.696 39.5663C128.433 39.7757 128.136 39.9381 127.818 40.046C127.436 40.1766 127.033 40.2394 126.629 40.2318ZM124.951 35.6563C124.925 35.7681 124.904 35.8811 124.888 35.9948H127.876V35.8739C127.871 35.6055 127.814 35.3407 127.71 35.0933C127.618 34.8572 127.46 34.6524 127.255 34.5032C127.05 34.3549 126.777 34.2807 126.436 34.2807C126.18 34.2807 125.952 34.3358 125.751 34.4461C125.554 34.5532 125.39 34.7089 125.259 34.9133C125.115 35.1421 125.012 35.3932 124.951 35.6563ZM134.595 36.5714V36.7184C134.595 37.2176 134.667 37.6806 134.812 38.1075C134.957 38.5331 135.169 38.9065 135.446 39.2277C135.723 39.5437 136.06 39.791 136.457 39.9696C136.858 40.1444 137.313 40.2318 137.821 40.2318C138.324 40.2318 138.774 40.1447 139.171 39.9706C139.568 39.7907 139.905 39.543 140.182 39.2277C140.465 38.8997 140.68 38.519 140.816 38.1075C140.961 37.6806 141.033 37.2176 141.033 36.7184V36.5714C141.033 36.0722 140.961 35.6092 140.816 35.1823C140.681 34.7703 140.466 34.3894 140.182 34.0621C139.903 33.7408 139.555 33.4871 139.164 33.3201C138.736 33.1353 138.273 33.0436 137.807 33.0512C137.304 33.0512 136.852 33.1409 136.451 33.3201C136.054 33.4949 135.717 33.7422 135.439 34.0621C135.159 34.3907 134.946 34.7713 134.812 35.1823C134.667 35.6092 134.595 36.0722 134.595 36.5714ZM136.137 36.7184V36.5714C136.137 36.2638 136.169 35.9736 136.233 35.7008C136.291 35.4402 136.392 35.1915 136.534 34.9656C136.671 34.7521 136.844 34.5854 137.053 34.4655C137.265 34.3417 137.517 34.2797 137.807 34.2797C138.097 34.2797 138.347 34.3417 138.556 34.4655C138.77 34.5854 138.945 34.7518 139.081 34.9646C139.222 35.1774 139.324 35.4228 139.389 35.7008C139.456 35.9736 139.49 36.2638 139.49 36.5714V36.7184C139.49 37.0299 139.456 37.3243 139.389 37.6016C139.324 37.8789 139.224 38.122 139.088 38.331C138.956 38.5359 138.775 38.7053 138.563 38.8243C138.336 38.9491 138.079 39.0109 137.821 39.0033C137.526 39.0033 137.272 38.9436 137.058 38.8243C136.846 38.7052 136.666 38.5358 136.534 38.331C136.391 38.1077 136.289 37.8607 136.233 37.6016C136.168 37.3118 136.135 37.0155 136.137 36.7184Z" fill="#99A2AF"/>
<path d="M144.924 40.1057H143.381V34.3074H142.319V33.1795H143.381V32.514C143.381 31.9981 143.477 31.565 143.669 31.2149C143.866 30.8602 144.146 30.5935 144.508 30.4149C144.87 30.2311 145.299 30.1395 145.795 30.1401C145.947 30.1401 146.099 30.1508 146.248 30.1721C146.398 30.1888 146.544 30.2166 146.683 30.2553L146.646 31.4451C146.553 31.4233 146.458 31.4084 146.363 31.4006C146.257 31.392 146.151 31.3878 146.044 31.388C145.809 31.388 145.606 31.4328 145.436 31.5225C145.272 31.6056 145.138 31.7373 145.052 31.8997C144.962 32.0917 144.918 32.3021 144.924 32.514V33.1795H146.351V34.3065H144.924V40.1057ZM153.3 35.1277V40.1057H151.757V33.1805H153.21L153.259 33.9611C153.485 33.6774 153.761 33.4581 154.087 33.3033C154.433 33.1357 154.832 33.0522 155.284 33.0528C155.6 33.0528 155.888 33.0999 156.148 33.194C156.412 33.283 156.641 33.4259 156.833 33.6226C156.975 33.7644 157.092 33.9363 157.186 34.1382C157.227 34.0801 157.269 34.0234 157.313 33.9679C157.543 33.6822 157.827 33.4581 158.164 33.2956C158.526 33.127 158.923 33.044 159.323 33.0528C159.677 33.0528 159.992 33.1018 160.27 33.1998C160.552 33.294 160.791 33.4433 160.987 33.6477C161.183 33.8521 161.332 34.1188 161.434 34.4477C161.537 34.7721 161.588 35.1648 161.588 35.6259V40.1057H160.04V35.6192C160.04 35.269 159.988 34.9981 159.886 34.8066C159.8 34.6258 159.649 34.4841 159.463 34.41C159.279 34.3326 159.06 34.2939 158.804 34.2939C158.565 34.2939 158.354 34.339 158.171 34.4293C157.993 34.5136 157.837 34.6385 157.716 34.794C157.592 34.9493 157.498 35.1256 157.437 35.3144C157.439 35.3725 157.44 35.4315 157.44 35.4915V40.1057H155.898V35.6269C155.898 35.2896 155.847 35.0252 155.745 34.8337C155.656 34.65 155.503 34.5044 155.316 34.4235C155.108 34.3332 154.883 34.2896 154.656 34.2958C154.366 34.2958 154.119 34.3513 153.914 34.4622C153.716 34.5719 153.547 34.7279 153.421 34.9169C153.376 34.9839 153.336 35.0542 153.3 35.1277Z" fill="#99A2AF"/>
<path fill-rule="evenodd" clip-rule="evenodd" d="M163.395 36.7184V36.5714C163.395 36.0722 163.467 35.6092 163.612 35.1823C163.758 34.7521 163.966 34.3787 164.239 34.0621C164.516 33.7417 164.862 33.488 165.25 33.3201C165.678 33.1353 166.141 33.0436 166.607 33.0512C167.115 33.0512 167.567 33.1409 167.964 33.3201C168.365 33.4949 168.704 33.7422 168.982 34.0621C169.259 34.3781 169.471 34.7515 169.616 35.1823C169.761 35.6092 169.833 36.0722 169.833 36.5714V36.7184C169.833 37.2175 169.761 37.6806 169.616 38.1075C169.47 38.5331 169.259 38.9065 168.982 39.2277C168.703 39.5458 168.358 39.7991 167.97 39.9696C167.574 40.1444 167.124 40.2318 166.62 40.2318C166.152 40.2398 165.688 40.1508 165.257 39.9706C164.87 39.7996 164.525 39.5461 164.246 39.2277C163.963 38.8997 163.748 38.519 163.612 38.1075C163.463 37.6597 163.39 37.1903 163.395 36.7184ZM164.937 36.5714V36.7184C164.937 37.0299 164.969 37.3243 165.032 37.6016C165.097 37.8789 165.197 38.122 165.333 38.331C165.469 38.5405 165.644 38.705 165.859 38.8243C166.071 38.9436 166.325 39.0033 166.62 39.0033C166.906 39.0033 167.154 38.9436 167.363 38.8243C167.575 38.7052 167.755 38.5358 167.887 38.331C168.03 38.1077 168.132 37.8607 168.188 37.6016C168.256 37.3243 168.29 37.0299 168.29 36.7184V36.5714C168.29 36.2638 168.256 35.9736 168.188 35.7008C168.131 35.4393 168.027 35.1902 167.881 34.9656C167.751 34.7571 167.571 34.585 167.356 34.4655C167.128 34.3371 166.869 34.273 166.607 34.2797C166.317 34.2797 166.065 34.3417 165.852 34.4655C165.641 34.587 165.463 34.7584 165.333 34.9646C165.197 35.1774 165.097 35.4228 165.032 35.7008C164.968 35.9864 164.936 36.2785 164.937 36.5714Z" fill="#99A2AF"/>
<path d="M173.163 35.1831V40.1039H171.62V33.1787H173.073L173.123 34.0135L173.156 33.9729C173.392 33.6839 173.689 33.4518 174.027 33.2938C174.379 33.1285 174.764 33.0455 175.153 33.051C175.486 33.051 175.786 33.0981 176.055 33.1923C176.329 33.2813 176.561 33.4283 176.753 33.6334C176.95 33.8385 177.099 34.1051 177.202 34.4334C177.304 34.7578 177.355 35.1566 177.355 35.63V40.1039H175.806V35.6251C175.806 35.2924 175.757 35.0299 175.659 34.8377C175.576 34.6525 175.428 34.5044 175.243 34.4218C175.031 34.3296 174.801 34.2859 174.571 34.2941C174.306 34.2941 174.069 34.3495 173.86 34.4605C173.652 34.5709 173.471 34.7262 173.329 34.9151C173.268 34.9989 173.212 35.0883 173.163 35.1831Z" fill="#99A2AF"/>
<path fill-rule="evenodd" clip-rule="evenodd" d="M182.493 40.2315C182.018 40.2387 181.547 40.1539 181.105 39.9819C180.71 39.8201 180.352 39.5784 180.055 39.2719C179.767 38.9628 179.542 38.5995 179.395 38.203C179.24 37.7786 179.162 37.3297 179.165 36.8777V36.6223C179.165 36.0806 179.244 35.5899 179.402 35.1501C179.559 34.7109 179.779 34.3356 180.061 34.0241C180.336 33.7118 180.677 33.4647 181.059 33.3005C181.453 33.1318 181.878 33.0468 182.307 33.0509C182.802 33.0509 183.236 33.1341 183.607 33.3005C183.978 33.4669 184.285 33.7016 184.528 34.0047C184.776 34.3033 184.959 34.6596 185.078 35.0736C185.202 35.4877 185.264 35.9442 185.264 36.4434V37.1021H180.722C180.737 37.3208 180.775 37.5278 180.836 37.7232C180.921 37.9792 181.044 38.2033 181.206 38.3955C181.369 38.587 181.565 38.7386 181.795 38.8501C182.026 38.9565 182.288 39.0097 182.583 39.0097C182.954 39.0097 183.284 38.9349 183.574 38.7853C183.864 38.6357 184.116 38.4245 184.33 38.1517L185.142 38.9391C184.977 39.1733 184.781 39.3841 184.56 39.566C184.298 39.7754 184.001 39.9377 183.684 40.0458C183.3 40.1764 182.897 40.2393 182.493 40.2315ZM180.816 35.656C180.79 35.7678 180.769 35.8808 180.754 35.9945H183.741V35.8736C183.735 35.6052 183.678 35.3404 183.574 35.093C183.483 34.857 183.325 34.6522 183.121 34.5029C182.916 34.3546 182.642 34.2804 182.301 34.2804C182.045 34.2804 181.816 34.3356 181.616 34.4458C181.42 34.5529 181.255 34.7086 181.123 34.9131C180.982 35.1427 180.878 35.3935 180.816 35.656Z" fill="#99A2AF"/>
<path d="M188.625 40.0884L186.173 33.1816H187.837L189.338 37.9119L190.78 33.1816H192.432L189.654 41.1622C189.581 41.3518 189.498 41.5375 189.405 41.7184C189.297 41.9265 189.162 42.1186 189.001 42.2891C188.839 42.4723 188.636 42.6193 188.394 42.7303C188.15 42.845 187.856 42.9024 187.511 42.9024C187.374 42.9024 187.241 42.8895 187.113 42.8637C186.995 42.8436 186.878 42.8204 186.761 42.7941L186.755 41.6159C186.857 41.625 186.959 41.6315 187.062 41.6352C187.279 41.6414 187.496 41.609 187.702 41.5395C187.867 41.4851 188.012 41.3827 188.118 41.2454C188.229 41.1087 188.323 40.9249 188.4 40.694L188.625 40.0884Z" fill="#99A2AF"/>
</svg>
